<svg xmlns="http://www.w3.org/2000/svg" xmlns:xlink="http://www.w3.org/1999/xlink" width="300" zoomAndPan="magnify" viewBox="0 0 224.87999 67.499998" height="90" preserveAspectRatio="xMidYMid meet" version="1.0"><defs><g/></defs><g fill="#16a34a" fill-opacity="1"><g transform="translate(0.56422, 45.630614)"><g><path d="M 28.78125 -24.0625 L 28.78125 11.8125 L 21.6875 11.8125 L 21.6875 -1.890625 C 20.6875 -1.035156 19.585938 -0.351562 18.390625 0.15625 C 17.191406 0.675781 15.929688 0.9375 14.609375 0.9375 C 12.804688 0.9375 11.109375 0.597656 9.515625 -0.078125 C 7.929688 -0.753906 6.554688 -1.679688 5.390625 -2.859375 C 4.222656 -4.035156 3.300781 -5.410156 2.625 -6.984375 C 1.945312 -8.566406 1.609375 -10.238281 1.609375 -12 C 1.609375 -13.800781 1.953125 -15.492188 2.640625 -17.078125 C 3.335938 -18.671875 4.273438 -20.050781 5.453125 -21.21875 C 6.640625 -22.382812 8.019531 -23.304688 9.59375 -23.984375 C 11.164062 -24.660156 12.835938 -25 14.609375 -25 C 15.929688 -25 17.191406 -24.738281 18.390625 -24.21875 C 19.585938 -23.695312 20.6875 -23.03125 21.6875 -22.21875 L 21.6875 -24.0625 Z M 15.3125 -5.484375 C 16.226562 -5.484375 17.085938 -5.65625 17.890625 -6 C 18.691406 -6.34375 19.382812 -6.804688 19.96875 -7.390625 C 20.550781 -7.972656 21.015625 -8.660156 21.359375 -9.453125 C 21.710938 -10.242188 21.890625 -11.09375 21.890625 -12 C 21.890625 -12.914062 21.710938 -13.773438 21.359375 -14.578125 C 21.015625 -15.378906 20.550781 -16.070312 19.96875 -16.65625 C 19.382812 -17.238281 18.691406 -17.703125 17.890625 -18.046875 C 17.085938 -18.398438 16.226562 -18.578125 15.3125 -18.578125 C 14.394531 -18.578125 13.539062 -18.398438 12.75 -18.046875 C 11.96875 -17.703125 11.285156 -17.238281 10.703125 -16.65625 C 10.117188 -16.070312 9.65625 -15.378906 9.3125 -14.578125 C 8.96875 -13.773438 8.796875 -12.914062 8.796875 -12 C 8.796875 -11.09375 8.96875 -10.242188 9.3125 -9.453125 C 9.65625 -8.660156 10.117188 -7.972656 10.703125 -7.390625 C 11.285156 -6.804688 11.96875 -6.34375 12.75 -6 C 13.539062 -5.65625 14.394531 -5.484375 15.3125 -5.484375 Z M 15.3125 -5.484375 "/></g></g></g><g fill="#16a34a" fill-opacity="1"><g transform="translate(30.142127, 45.630614)"><g><path d="M 26.234375 0 L 19.1875 0 L 19.1875 -2.453125 C 18.238281 -1.410156 17.195312 -0.585938 16.0625 0.015625 C 14.9375 0.628906 13.675781 0.9375 12.28125 0.9375 C 10.894531 0.9375 9.601562 0.671875 8.40625 0.140625 C 7.207031 -0.390625 6.164062 -1.117188 5.28125 -2.046875 C 4.40625 -2.984375 3.707031 -4.066406 3.1875 -5.296875 C 2.664062 -6.523438 2.40625 -7.847656 2.40625 -9.265625 L 2.40625 -24.0625 L 9.5 -24.0625 L 9.5 -10.640625 C 9.5 -9.910156 9.625 -9.238281 9.875 -8.625 C 10.125 -8.007812 10.46875 -7.460938 10.90625 -6.984375 C 11.351562 -6.515625 11.867188 -6.144531 12.453125 -5.875 C 13.035156 -5.613281 13.660156 -5.484375 14.328125 -5.484375 C 14.984375 -5.484375 15.601562 -5.613281 16.1875 -5.875 C 16.769531 -6.144531 17.289062 -6.515625 17.75 -6.984375 C 18.207031 -7.460938 18.5625 -8.023438 18.8125 -8.671875 C 19.0625 -9.316406 19.1875 -10.003906 19.1875 -10.734375 L 19.1875 -24.0625 L 26.234375 -24.0625 Z M 26.234375 0 "/></g></g></g><g fill="#16a34a" fill-opacity="1"><g transform="translate(56.885047, 45.630614)"><g><path d="M 2.546875 -24.0625 L 9.640625 -24.0625 L 9.640625 0 L 2.546875 0 Z M 6.09375 -34.96875 C 7.257812 -34.96875 8.25 -34.554688 9.0625 -33.734375 C 9.882812 -32.921875 10.296875 -31.929688 10.296875 -30.765625 C 10.296875 -29.597656 9.882812 -28.601562 9.0625 -27.78125 C 8.25 -26.96875 7.257812 -26.5625 6.09375 -26.5625 C 4.925781 -26.5625 3.929688 -26.96875 3.109375 -27.78125 C 2.296875 -28.601562 1.890625 -29.597656 1.890625 -30.765625 C 1.890625 -31.929688 2.296875 -32.921875 3.109375 -33.734375 C 3.929688 -34.554688 4.925781 -34.96875 6.09375 -34.96875 Z M 6.09375 -34.96875 "/></g></g></g><g fill="#16a34a" fill-opacity="1"><g transform="translate(67.326748, 45.630614)"><g><path d="M 26.328125 -4.25 C 25.128906 -2.644531 23.488281 -1.378906 21.40625 -0.453125 C 19.332031 0.472656 17.066406 0.9375 14.609375 0.9375 C 12.867188 0.9375 11.210938 0.597656 9.640625 -0.078125 C 8.066406 -0.753906 6.6875 -1.679688 5.5 -2.859375 C 4.320312 -4.035156 3.378906 -5.410156 2.671875 -6.984375 C 1.960938 -8.566406 1.609375 -10.238281 1.609375 -12 C 1.609375 -13.800781 1.945312 -15.492188 2.625 -17.078125 C 3.300781 -18.671875 4.226562 -20.050781 5.40625 -21.21875 C 6.59375 -22.382812 7.972656 -23.304688 9.546875 -23.984375 C 11.117188 -24.660156 12.804688 -25 14.609375 -25 C 17.097656 -25 19.359375 -24.535156 21.390625 -23.609375 C 23.421875 -22.679688 25.035156 -21.425781 26.234375 -19.84375 L 20.609375 -15.96875 C 20.066406 -16.757812 19.300781 -17.390625 18.3125 -17.859375 C 17.320312 -18.335938 16.085938 -18.578125 14.609375 -18.578125 C 13.785156 -18.578125 13.019531 -18.398438 12.3125 -18.046875 C 11.601562 -17.703125 10.976562 -17.226562 10.4375 -16.625 C 9.90625 -16.03125 9.488281 -15.332031 9.1875 -14.53125 C 8.894531 -13.726562 8.75 -12.882812 8.75 -12 C 8.75 -11.15625 8.90625 -10.335938 9.21875 -9.546875 C 9.53125 -8.753906 9.960938 -8.050781 10.515625 -7.4375 C 11.066406 -6.820312 11.695312 -6.332031 12.40625 -5.96875 C 13.113281 -5.613281 13.847656 -5.4375 14.609375 -5.4375 C 16.023438 -5.4375 17.21875 -5.65625 18.1875 -6.09375 C 19.164062 -6.539062 19.910156 -7.109375 20.421875 -7.796875 Z M 26.328125 -4.25 "/></g></g></g><g fill="#16a34a" fill-opacity="1"><g transform="translate(93.171916, 45.630614)"><g><path d="M 18.25 0 L 9.640625 -8.453125 L 9.640625 0 L 2.546875 0 L 2.546875 -33.078125 L 9.640625 -33.078125 L 9.640625 -15.6875 L 17.578125 -24.0625 L 26.328125 -24.0625 L 15.03125 -12.1875 L 27.515625 0 Z M 18.25 0 "/></g></g></g><g fill="#16a34a" fill-opacity="1"><g transform="translate(119.725826, 45.630614)"><g><path d="M 13.28125 -24.0625 L 19.140625 -24.0625 L 17.71875 -17.90625 L 13.28125 -17.90625 L 13.28125 0 L 6.1875 0 L 6.1875 -17.90625 L 1.28125 -17.90625 L 1.28125 -24.0625 L 6.1875 -24.0625 L 6.1875 -26.5625 C 6.1875 -27.601562 6.382812 -28.570312 6.78125 -29.46875 C 7.175781 -30.363281 7.710938 -31.148438 8.390625 -31.828125 C 9.066406 -32.503906 9.851562 -33.039062 10.75 -33.4375 C 11.644531 -33.832031 12.613281 -34.03125 13.65625 -34.03125 C 15.769531 -34.03125 17.460938 -33.894531 18.734375 -33.625 C 20.015625 -33.363281 20.828125 -33.179688 21.171875 -33.078125 L 19.75 -26.609375 C 19.5625 -26.765625 19.175781 -26.96875 18.59375 -27.21875 C 18.007812 -27.476562 17.101562 -27.609375 15.875 -27.609375 C 15.15625 -27.609375 14.539062 -27.363281 14.03125 -26.875 C 13.53125 -26.382812 13.28125 -25.789062 13.28125 -25.09375 Z M 13.28125 -24.0625 "/></g></g></g><g fill="#16a34a" fill-opacity="1"><g transform="translate(138.247266, 45.630614)"><g><path d="M 26.234375 0 L 19.1875 0 L 19.1875 -2.453125 C 18.238281 -1.410156 17.195312 -0.585938 16.0625 0.015625 C 14.9375 0.628906 13.675781 0.9375 12.28125 0.9375 C 10.894531 0.9375 9.601562 0.671875 8.40625 0.140625 C 7.207031 -0.390625 6.164062 -1.117188 5.28125 -2.046875 C 4.40625 -2.984375 3.707031 -4.066406 3.1875 -5.296875 C 2.664062 -6.523438 2.40625 -7.847656 2.40625 -9.265625 L 2.40625 -24.0625 L 9.5 -24.0625 L 9.5 -10.640625 C 9.5 -9.910156 9.625 -9.238281 9.875 -8.625 C 10.125 -8.007812 10.46875 -7.460938 10.90625 -6.984375 C 11.351562 -6.515625 11.867188 -6.144531 12.453125 -5.875 C 13.035156 -5.613281 13.660156 -5.484375 14.328125 -5.484375 C 14.984375 -5.484375 15.601562 -5.613281 16.1875 -5.875 C 16.769531 -6.144531 17.289062 -6.515625 17.75 -6.984375 C 18.207031 -7.460938 18.5625 -8.023438 18.8125 -8.671875 C 19.0625 -9.316406 19.1875 -10.003906 19.1875 -10.734375 L 19.1875 -24.0625 L 26.234375 -24.0625 Z M 26.234375 0 "/></g></g></g><g fill="#16a34a" fill-opacity="1"><g transform="translate(164.990183, 45.630614)"><g><path d="M 17.109375 -25 C 18.523438 -25 19.847656 -24.726562 21.078125 -24.1875 C 22.304688 -23.65625 23.382812 -22.925781 24.3125 -22 C 25.25 -21.070312 25.984375 -19.992188 26.515625 -18.765625 C 27.046875 -17.535156 27.3125 -16.210938 27.3125 -14.796875 L 27.3125 0 L 20.234375 0 L 20.234375 -13.421875 C 20.234375 -14.117188 20.085938 -14.78125 19.796875 -15.40625 C 19.515625 -16.039062 19.132812 -16.59375 18.65625 -17.0625 C 18.1875 -17.53125 17.632812 -17.898438 17 -18.171875 C 16.375 -18.441406 15.71875 -18.578125 15.03125 -18.578125 C 14.300781 -18.578125 13.617188 -18.429688 12.984375 -18.140625 C 12.359375 -17.859375 11.8125 -17.484375 11.34375 -17.015625 C 10.875 -16.546875 10.492188 -15.992188 10.203125 -15.359375 C 9.921875 -14.734375 9.78125 -14.054688 9.78125 -13.328125 L 9.78125 0 L 2.6875 0 L 2.6875 -24.0625 L 9.78125 -24.0625 L 9.78125 -21.3125 C 10.757812 -22.414062 11.851562 -23.304688 13.0625 -23.984375 C 14.28125 -24.660156 15.628906 -25 17.109375 -25 Z M 17.109375 -25 "/></g></g></g><g fill="#16a34a" fill-opacity="1"><g transform="translate(192.819846, 45.630614)"><g><path d="M 28.78125 -33.078125 L 28.78125 0 L 21.6875 0 L 21.6875 -1.890625 C 20.65625 -1.035156 19.539062 -0.351562 18.34375 0.15625 C 17.144531 0.675781 15.882812 0.9375 14.5625 0.9375 C 12.757812 0.9375 11.070312 0.597656 9.5 -0.078125 C 7.925781 -0.753906 6.554688 -1.679688 5.390625 -2.859375 C 4.222656 -4.035156 3.300781 -5.410156 2.625 -6.984375 C 1.945312 -8.566406 1.609375 -10.238281 1.609375 -12 C 1.609375 -13.800781 1.945312 -15.492188 2.625 -17.078125 C 3.300781 -18.671875 4.226562 -20.050781 5.40625 -21.21875 C 6.59375 -22.382812 7.972656 -23.304688 9.546875 -23.984375 C 11.117188 -24.660156 12.789062 -25 14.5625 -25 C 15.882812 -25 17.148438 -24.738281 18.359375 -24.21875 C 19.578125 -23.695312 20.6875 -23.03125 21.6875 -22.21875 L 21.6875 -33.078125 Z M 15.3125 -5.4375 C 16.226562 -5.4375 17.085938 -5.609375 17.890625 -5.953125 C 18.691406 -6.296875 19.382812 -6.757812 19.96875 -7.34375 C 20.550781 -7.925781 21.015625 -8.617188 21.359375 -9.421875 C 21.710938 -10.234375 21.890625 -11.09375 21.890625 -12 C 21.890625 -12.914062 21.710938 -13.773438 21.359375 -14.578125 C 21.015625 -15.378906 20.550781 -16.070312 19.96875 -16.65625 C 19.382812 -17.238281 18.691406 -17.703125 17.890625 -18.046875 C 17.085938 -18.398438 16.226562 -18.578125 15.3125 -18.578125 C 14.394531 -18.578125 13.535156 -18.398438 12.734375 -18.046875 C 11.929688 -17.703125 11.238281 -17.238281 10.65625 -16.65625 C 10.070312 -16.070312 9.609375 -15.378906 9.265625 -14.578125 C 8.921875 -13.773438 8.75 -12.914062 8.75 -12 C 8.75 -11.09375 8.921875 -10.234375 9.265625 -9.421875 C 9.609375 -8.617188 10.070312 -7.925781 10.65625 -7.34375 C 11.238281 -6.757812 11.929688 -6.296875 12.734375 -5.953125 C 13.535156 -5.609375 14.394531 -5.4375 15.3125 -5.4375 Z M 15.3125 -5.4375 "/></g></g></g></svg>