<svg xmlns="http://www.w3.org/2000/svg" xmlns:xlink="http://www.w3.org/1999/xlink" width="180" zoomAndPan="magnify" viewBox="0 0 135 135.000003" height="180" preserveAspectRatio="xMidYMid meet" version="1.0"><defs><clipPath id="74dacbcfe3"><path d="M 0.496094 0 L 134.503906 0 L 134.503906 134.007812 L 0.496094 134.007812 Z M 0.496094 0 " clip-rule="nonzero"/></clipPath><clipPath id="f968156165"><path d="M 39.59375 18.53125 L 90.21875 18.53125 L 90.21875 115.316406 L 39.59375 115.316406 Z M 39.59375 18.53125 " clip-rule="nonzero"/></clipPath></defs><g clip-path="url(#74dacbcfe3)"><path fill="#ffffff" d="M 0.496094 0 L 134.503906 0 L 134.503906 134.007812 L 0.496094 134.007812 Z M 0.496094 0 " fill-opacity="1" fill-rule="nonzero"/><path fill="#17a34a" d="M 0.496094 0 L 134.503906 0 L 134.503906 134.007812 L 0.496094 134.007812 Z M 0.496094 0 " fill-opacity="1" fill-rule="nonzero"/></g><g clip-path="url(#f968156165)"><path fill="#ffffff" d="M 77.492188 18.679688 C 76.773438 18.695312 76.210938 19.003906 75.804688 19.597656 L 40.167969 72.003906 C 39.949219 72.324219 39.832031 72.679688 39.808594 73.066406 C 39.789062 73.453125 39.867188 73.820312 40.050781 74.164062 C 40.230469 74.507812 40.488281 74.777344 40.820312 74.980469 C 41.152344 75.179688 41.511719 75.28125 41.902344 75.28125 L 60.28125 75.28125 L 52.425781 112.582031 C 52.378906 112.824219 52.371094 113.0625 52.40625 113.304688 C 52.441406 113.546875 52.515625 113.777344 52.628906 113.992188 C 52.746094 114.210938 52.894531 114.398438 53.074219 114.5625 C 53.257812 114.726562 53.460938 114.855469 53.6875 114.949219 C 53.914062 115.042969 54.148438 115.09375 54.394531 115.101562 C 54.636719 115.113281 54.878906 115.082031 55.109375 115.007812 C 55.34375 114.933594 55.558594 114.824219 55.753906 114.675781 C 55.949219 114.527344 56.109375 114.347656 56.242188 114.144531 L 89.785156 61.734375 C 89.992188 61.414062 90.101562 61.0625 90.113281 60.679688 C 90.125 60.296875 90.042969 59.9375 89.855469 59.601562 C 89.671875 59.265625 89.417969 59 89.085938 58.804688 C 88.757812 58.609375 88.402344 58.511719 88.019531 58.511719 L 71.738281 58.511719 L 79.589844 21.207031 C 79.621094 21.050781 79.636719 20.894531 79.632812 20.738281 C 79.628906 20.582031 79.609375 20.425781 79.570312 20.273438 C 79.535156 20.117188 79.480469 19.972656 79.410156 19.832031 C 79.335938 19.691406 79.25 19.558594 79.152344 19.4375 C 79.050781 19.316406 78.9375 19.207031 78.8125 19.113281 C 78.6875 19.015625 78.550781 18.933594 78.410156 18.871094 C 78.265625 18.804688 78.117188 18.753906 77.960938 18.722656 C 77.808594 18.691406 77.652344 18.675781 77.492188 18.679688 Z M 77.492188 18.679688 " fill-opacity="1" fill-rule="nonzero"/></g></svg>