<svg xmlns="http://www.w3.org/2000/svg" viewBox="0 0 100 100">
  <defs>
    <style>
      .cls-1 {
        fill: none;
      }
      .cls-1,
      .cls-3 {
        stroke: #344154;
        stroke-linecap: round;
        stroke-linejoin: round;
        stroke-width: 1.5px;
      }
      .cls-2 {
        fill: #16a34a;
      }
      .cls-3 {
        fill: #fff;
      }
    </style>
  </defs>
  <g id="Layer_1" data-name="Layer 1">
    <polyline class="cls-1" points="97.61 41.65 97.61 81.95 79.71 81.95" />
    <polyline class="cls-1" points="85.39 19.98 97.61 19.98 97.61 22.85" />
    <polyline class="cls-1" points="61.22 81.95 35.64 81.95 35.64 73.33" />
    <rect
      class="cls-1"
      x="27.38"
      y="17.31"
      width="61.96"
      height="61.96"
      transform="translate(18.47 -16.1) rotate(18.61)"
    />
    <line class="cls-1" x1="48.22" y1="44.4" x2="68.45" y2="51.21" />
    <line class="cls-1" x1="45.23" y1="52.52" x2="65.46" y2="59.33" />
    <path
      class="cls-2"
      d="M26.44,57.56l-2.65,7.88L75.51,82.86,78.16,75C48.76,73.06,26.44,57.56,26.44,57.56Z"
    />
    <path
      class="cls-3"
      d="M20.83,22.6H17.38a2.11,2.11,0,0,1-2-2.87l1.87-5a2.16,2.16,0,0,1,1.48-1.31,2.14,2.14,0,0,1,1.91.46L22,15.08a2.17,2.17,0,0,1,.73,1.46L23,20.33a2.14,2.14,0,0,1-.57,1.6A2.11,2.11,0,0,1,20.83,22.6Z"
    />
    <path
      class="cls-3"
      d="M46.94,22.52H37.28a2.54,2.54,0,0,1-2.09-1.09,2.51,2.51,0,0,1-.28-2.34l5-13.16a2.6,2.6,0,0,1,1.76-1.56,2.56,2.56,0,0,1,2.28.55l4,3.51a2.52,2.52,0,0,1,.86,1.74l.65,9.65a2.55,2.55,0,0,1-2.53,2.7Z"
    />
    <line class="cls-3" x1="15.68" y1="40.1" x2="26.44" y2="40.1" />
    <path
      class="cls-3"
      d="M45,40.1H64.48c5.57,0,8.76-2.47,8.76-6.79A7.1,7.1,0,0,0,72.75,31h0c0-.09-.07-.18-.11-.27s0,0,0,0l-.12-.28,0,0-.13-.28,0-.05-.15-.29,0,0a2.75,2.75,0,0,0-.17-.29l0,0-.18-.29,0-.05c-.07-.1-.13-.2-.2-.29l0-.06-.24-.32,0,0L71,28.06l0,0-.27-.3-.05,0-.29-.3-.06-.06L69.94,27l0,0-.34-.3-.06,0-.35-.27a.39.39,0,0,0-.1-.08c-.11-.09-.24-.17-.37-.26l-.1-.07c-.13-.09-.26-.18-.4-.26l-.1-.07-.45-.26-.09-.06-.43-.23L67,25l-.46-.23-.16-.08-.47-.19-.18-.08-.52-.2L65,24.14l-.57-.2-.17-.05-.59-.18-.19-.06-.62-.16-.2,0L62,23.3l-.26-.06-.56-.11-.35-.06-.5-.08-.46-.07-.58-.08-.43-.05c-.2,0-.41,0-.61-.06l-.45,0-.67,0-.44,0-.53,0c-.59,0-1.21,0-1.84,0H19.08l-3.54,0L11.6,17.15A5.26,5.26,0,0,0,8.2,15l-3-.52a2.35,2.35,0,0,0-2.25.88,2.33,2.33,0,0,0-.31,2.39l8.12,18.73m61.65-6.38-12.16.14-4-7.68"
    />
    <path
      class="cls-3"
      d="M24,56.3a2.88,2.88,0,0,1-2.24-1,2.92,2.92,0,0,1-.45-3l9-21.24a1.16,1.16,0,0,1,1.07-.71H47.27a2.93,2.93,0,0,1,2.18,4.89L32.6,53.88a3,3,0,0,1-1.53.91l-6.43,1.44A2.81,2.81,0,0,1,24,56.3Z"
    />
    <path
      class="cls-3"
      d="M11.31,41.87a1.92,1.92,0,0,1-1.75-2.65L13.05,31a1.16,1.16,0,0,1,1.07-.71h6.12a1.91,1.91,0,0,1,1.42,3.18L15.14,40.7a2,2,0,0,1-1,.58l-2.4.54A2.18,2.18,0,0,1,11.31,41.87Z"
    />
  </g>
</svg>
